<?xml version="1.0" encoding="utf-8"?>
<!-- Generator: Adobe Illustrator 25.3.1, SVG Export Plug-In . SVG Version: 6.00 Build 0)  -->
<svg version="1.1" id="Layer_1" xmlns="http://www.w3.org/2000/svg" xmlns:xlink="http://www.w3.org/1999/xlink" x="0px" y="0px"
	 viewBox="0 0 35 35" style="enable-background:new 0 0 35 35;" xml:space="preserve">
<style type="text/css">
	.st0{fill:none;stroke:#7A7A7A;stroke-width:0.75;stroke-linecap:round;stroke-linejoin:round;stroke-miterlimit:10;}
	.st1{fill:none;stroke:#4F813B;stroke-width:0.75;stroke-linecap:round;stroke-linejoin:round;stroke-miterlimit:10;}
	.st2{fill:none;stroke:#7A7A7A;stroke-width:0.75;stroke-linejoin:round;stroke-miterlimit:10;}
	.st3{fill:none;stroke:#7A7A7A;stroke-width:0.5;stroke-linecap:round;stroke-linejoin:round;stroke-miterlimit:10;}
	.st4{fill:none;stroke:#7B7B7B;stroke-width:0.75;stroke-linecap:round;stroke-linejoin:round;stroke-miterlimit:10;}
	.st5{fill:none;stroke:#7B7B7B;stroke-width:0.7471;stroke-linecap:round;stroke-linejoin:round;stroke-miterlimit:10;}
	.st6{fill:none;stroke:#7C7C7C;stroke-width:0.75;stroke-linecap:round;stroke-linejoin:round;stroke-miterlimit:10;}
</style>
<g>
	<path class="st1" d="M22.15,11.61c0.28-0.02,0.7-0.07,1.18-0.28c0,0,0.41-0.18,0.76-0.45c0.65-0.5,1.2-2.15,1.07-4.28
		c-0.29-0.02-0.7-0.04-1.2-0.02c-1.31,0.05-2.19,0.08-2.87,0.64c-0.23,0.19-0.72,0.66-0.91,1.67c-0.27-1.19-0.88-1.65-1.1-1.79
		c-0.54-0.35-1.17-0.37-2.43-0.41c-0.56-0.02-1.02,0-1.32,0.02c-0.01,0.21-0.08,3.31,1.23,4.24c0.23,0.16,0.47,0.28,0.47,0.28
		c0.24,0.12,0.72,0.32,2.2,0.39c0.25,0.01,0.59,0.02,1.01,0.02c0.01,1.69,0.03,3.37,0.04,5.06"/>
	<path class="st4" d="M7.01,14.28c1.17-0.08,2.91-0.06,4.85,0.53c1.95,0.6,1.79,1.07,3.41,1.59c3.19,1.03,6.54,0.15,8.68,1.03
		c0.84,0.35,0.97,0.76,1.01,0.89c0.17,0.54-0.17,1.09-0.2,1.12c-0.23,0.36-0.74,0.72-4.29,0.73c-2.29,0-3.35,0.05-4.27,0.23
		c-0.33,0.06-0.6,0.13-0.78,0.17"/>
	<path class="st4" d="M7.1,22.52c1.57,0.41,3.9,1.07,6.74,2.01c1.29,0.43,1.14,0.41,1.46,0.49c4.68,1.31,7.28-1.68,14.91-3.88
		c0.85-0.25,2.76-0.77,3.12-2.08c0.03-0.11,0.2-0.72-0.12-1.19c-0.7-1.01-3.09-0.49-5.44,0.02c-1.21,0.26-2.16,0.56-2.75,0.75"/>
	<rect x="1.61" y="12.8" class="st5" width="5.38" height="11.98"/>
	<circle class="st4" cx="4.3" cy="21.73" r="0.9"/>
</g>
</svg>
