<?xml version="1.0" encoding="utf-8"?>
<!-- Generator: Adobe Illustrator 25.3.1, SVG Export Plug-In . SVG Version: 6.00 Build 0)  -->
<svg version="1.1" id="Layer_1" xmlns="http://www.w3.org/2000/svg" xmlns:xlink="http://www.w3.org/1999/xlink" x="0px" y="0px"
	 viewBox="0 0 35 35" style="enable-background:new 0 0 35 35;" xml:space="preserve">
<style type="text/css">
	.st0{fill:none;stroke:#7A7A7A;stroke-width:0.75;stroke-linecap:round;stroke-linejoin:round;stroke-miterlimit:10;}
	.st1{fill:none;stroke:#4F813B;stroke-width:0.75;stroke-linecap:round;stroke-linejoin:round;stroke-miterlimit:10;}
	.st2{fill:none;stroke:#7A7A7A;stroke-width:0.75;stroke-linejoin:round;stroke-miterlimit:10;}
	.st3{fill:none;stroke:#7A7A7A;stroke-width:0.5;stroke-linecap:round;stroke-linejoin:round;stroke-miterlimit:10;}
	.st4{fill:none;stroke:#7B7B7B;stroke-width:0.75;stroke-linecap:round;stroke-linejoin:round;stroke-miterlimit:10;}
	.st5{fill:none;stroke:#7B7B7B;stroke-width:0.7471;stroke-linecap:round;stroke-linejoin:round;stroke-miterlimit:10;}
	.st6{fill:none;stroke:#7C7C7C;stroke-width:0.75;stroke-linecap:round;stroke-linejoin:round;stroke-miterlimit:10;}
</style>
<g>
	<path class="st1" d="M19.89,4.44c0.2-0.01,0.5-0.05,0.84-0.2c0,0,0.29-0.13,0.54-0.32c0.46-0.36,0.86-1.54,0.76-3.06
		c-0.21-0.01-0.5-0.03-0.86-0.01c-0.93,0.04-1.57,0.06-2.05,0.46c-0.16,0.13-0.51,0.47-0.65,1.2c-0.19-0.85-0.63-1.18-0.79-1.28
		c-0.39-0.25-0.84-0.26-1.74-0.29c-0.4-0.01-0.73,0-0.94,0.01c0,0.15-0.06,2.37,0.88,3.03c0.16,0.12,0.34,0.2,0.34,0.2
		c0.17,0.08,0.51,0.23,1.57,0.28c0.18,0.01,0.42,0.02,0.72,0.01c0.01,1.21,0.02,2.41,0.03,3.62"/>
	<path class="st6" d="M11.38,8.55c4.71-0.02,9.43-0.04,14.14-0.07c0.01,0.78,0.02,1.56,0.03,2.33c0.08-0.01,1.34-0.17,2.1,0.75
		c0.71,0.85,0.58,2.14-0.1,2.92c-0.73,0.84-1.83,0.8-1.98,0.79c-0.14,0.67-0.6,2.33-2.08,3.75c-1.12,1.08-2.32,1.54-2.97,1.73
		c-0.05,1.15-0.1,2.31-0.15,3.46c-0.18,0.16-0.83,0.72-1.83,0.74c-1.26,0.03-2.06-0.81-2.18-0.94c-0.02-1.07-0.03-2.14-0.05-3.21
		c-0.65-0.21-1.62-0.62-2.57-1.43c-1.69-1.44-2.26-3.24-2.45-3.98c-0.26,0.03-1.1,0.09-1.79-0.45c-1.02-0.81-1.19-2.58-0.27-3.57
		c0.77-0.83,1.94-0.73,2.11-0.71C11.37,9.95,11.37,9.25,11.38,8.55z"/>
	<path class="st6" d="M20.47,22.66c1.58,0.27,5.63,1.26,8.21,5.03c1.65,2.41,1.97,4.88,2.03,6.18c-8.26,0.03-16.52,0.07-24.77,0.1
		c0.06-1.17,0.35-3.81,2.18-6.38c2.79-3.92,7.03-4.73,7.95-4.89"/>
	<path class="st6" d="M20.75,27.04c1.07-1.1,2.14-2.2,3.21-3.3"/>
	<path class="st6" d="M15.85,27.09c-1.1-1.08-2.2-2.16-3.3-3.24"/>
</g>
</svg>
