<?xml version="1.0" encoding="utf-8"?>
<!-- Generator: Adobe Illustrator 25.3.1, SVG Export Plug-In . SVG Version: 6.00 Build 0)  -->
<svg version="1.1" id="Layer_1" xmlns="http://www.w3.org/2000/svg" xmlns:xlink="http://www.w3.org/1999/xlink" x="0px" y="0px"
	 viewBox="0 0 35 35" style="enable-background:new 0 0 35 35;" xml:space="preserve">
<style type="text/css">
	.st0{fill:none;stroke:#7A7A7A;stroke-width:0.75;stroke-linecap:round;stroke-linejoin:round;stroke-miterlimit:10;}
	.st1{fill:none;stroke:#4F813B;stroke-width:0.75;stroke-linecap:round;stroke-linejoin:round;stroke-miterlimit:10;}
	.st2{fill:none;stroke:#7A7A7A;stroke-width:0.75;stroke-linejoin:round;stroke-miterlimit:10;}
	.st3{fill:none;stroke:#7A7A7A;stroke-width:0.5;stroke-linecap:round;stroke-linejoin:round;stroke-miterlimit:10;}
	.st4{fill:none;stroke:#7B7B7B;stroke-width:0.75;stroke-linecap:round;stroke-linejoin:round;stroke-miterlimit:10;}
	.st5{fill:none;stroke:#7B7B7B;stroke-width:0.7471;stroke-linecap:round;stroke-linejoin:round;stroke-miterlimit:10;}
	.st6{fill:none;stroke:#7C7C7C;stroke-width:0.75;stroke-linecap:round;stroke-linejoin:round;stroke-miterlimit:10;}
</style>
<g>
	<g>
		<path class="st0" d="M10.87,23.07c4.62,0,9.23,0,13.85,0c0.02,1.17,0.02,2.06,0.01,2.55c0,0.12-0.01,0.34-0.16,0.51
			c-0.19,0.21-0.51,0.22-0.65,0.22c-6.85,0.03-11.87,0.03-12.39,0c-0.11-0.01-0.36-0.03-0.52-0.21c-0.15-0.17-0.15-0.41-0.15-0.51
			C10.86,25.14,10.86,24.24,10.87,23.07z"/>
		<path class="st0" d="M12.13,26.37c0.16,2.5,0.31,5.01,0.47,7.51c3.41-0.01,6.82-0.02,10.24-0.02c0.22-2.5,0.45-5,0.67-7.5
			C19.71,26.36,15.92,26.36,12.13,26.37z"/>
		<path class="st0" d="M12.82,5.65c1.74-1.95,4.28-2,4.65-2.01c0.48,0,2.75,0.04,4.47,1.76c2.12,2.13,2.12,5.55,1.1,7.67
			c-0.82,1.71-1.78,1.48-2.44,3.36c-0.63,1.8-0.11,3.03-1.21,4.1c-0.16,0.16-0.77,0.74-1.66,0.78c-1.04,0.04-1.78-0.69-1.91-0.82
			c-1.01-1.04-0.44-2.15-1.12-3.82c-0.61-1.51-1.41-1.43-2.28-2.76C11.04,11.8,10.71,8.02,12.82,5.65z"/>
		<path class="st1" d="M18.86,14c0.19-0.01,0.5-0.05,0.83-0.2c0,0,0.29-0.12,0.54-0.32c0.46-0.36,0.85-1.52,0.75-3.02
			c-0.2-0.01-0.5-0.03-0.85-0.01c-0.92,0.03-1.55,0.06-2.03,0.45c-0.16,0.13-0.51,0.47-0.65,1.18c-0.19-0.84-0.62-1.17-0.78-1.27
			c-0.38-0.25-0.83-0.26-1.72-0.29c-0.39-0.01-0.72,0-0.93,0.01c0,0.15-0.06,2.34,0.87,3c0.16,0.11,0.33,0.2,0.33,0.2
			c0.17,0.08,0.51,0.23,1.56,0.27c0.17,0.01,0.42,0.02,0.71,0.01c0.01,1.19,0.02,2.39,0.03,3.58"/>
		<path class="st0" d="M17.51,0.62c0,0.59,0,1.19,0,1.78"/>
		<path class="st0" d="M11.29,3.17c0.42,0.42,0.84,0.84,1.26,1.26"/>
		<path class="st0" d="M8.49,9.44c0.59,0,1.19,0,1.78,0"/>
		<path class="st0" d="M10.49,15.96c0.42-0.42,0.84-0.84,1.26-1.26"/>
		<path class="st0" d="M24.34,15.96c-0.42-0.42-0.84-0.84-1.26-1.26"/>
		<path class="st0" d="M26.51,9.44c-0.59,0-1.19,0-1.78,0"/>
		<path class="st0" d="M23.71,3.22c-0.42,0.42-0.84,0.84-1.26,1.26"/>
		<path class="st2" d="M17.67,21.31c0,0.59,0,1.19,0,1.78"/>
	</g>
	<path class="st3" d="M20.29,17.78c-1.75,0.05-3.5,0.09-5.25,0.14"/>
	<path class="st3" d="M20.25,18.15c-1.71,0.16-3.42,0.32-5.13,0.48"/>
	<path class="st3" d="M20.25,18.87c-1.71,0.16-3.42,0.32-5.13,0.48"/>
	<path class="st3" d="M20.02,19.62c-0.1,0.01-4.43,0.41-4.46,0.41"/>
	<path class="st3" d="M19.59,20.37c-1.19,0.12-2.37,0.23-3.56,0.35"/>
</g>
</svg>
