<?xml version="1.0" encoding="utf-8"?>
<!-- Generator: Adobe Illustrator 25.3.1, SVG Export Plug-In . SVG Version: 6.00 Build 0)  -->
<svg version="1.1" id="Layer_1" xmlns="http://www.w3.org/2000/svg" xmlns:xlink="http://www.w3.org/1999/xlink" x="0px" y="0px"
	 viewBox="0 0 35 35" style="enable-background:new 0 0 35 35;" xml:space="preserve">
<style type="text/css">
	.st0{fill:none;stroke:#7A7A7A;stroke-width:0.75;stroke-linecap:round;stroke-linejoin:round;stroke-miterlimit:10;}
	.st1{fill:none;stroke:#4F813B;stroke-width:0.75;stroke-linecap:round;stroke-linejoin:round;stroke-miterlimit:10;}
	.st2{fill:none;stroke:#7A7A7A;stroke-width:0.75;stroke-linejoin:round;stroke-miterlimit:10;}
	.st3{fill:none;stroke:#7A7A7A;stroke-width:0.5;stroke-linecap:round;stroke-linejoin:round;stroke-miterlimit:10;}
	.st4{fill:none;stroke:#7B7B7B;stroke-width:0.75;stroke-linecap:round;stroke-linejoin:round;stroke-miterlimit:10;}
	.st5{fill:none;stroke:#7B7B7B;stroke-width:0.7471;stroke-linecap:round;stroke-linejoin:round;stroke-miterlimit:10;}
	.st6{fill:none;stroke:#7C7C7C;stroke-width:0.75;stroke-linecap:round;stroke-linejoin:round;stroke-miterlimit:10;}
</style>
<g>
	<path class="st0" d="M1.19,19.8c2.32-0.3,7.26-0.59,12.31,2.05c1.77,0.92,3.17,2,4.24,2.99c1.32-1.16,3.87-3.11,7.63-4.23
		c3.71-1.1,6.87-0.89,8.6-0.64"/>
	<path class="st0" d="M0.58,22.27c1.71-0.33,7.22-1.18,12.54,2c2.18,1.31,3.67,2.9,4.63,4.14c0.89-1.18,3.33-4.05,7.63-5.57
		c4.08-1.45,7.6-0.89,9.05-0.57"/>
	<path class="st1" d="M20.71,14.18c0.42-0.02,1.07-0.09,1.8-0.4c0,0,0.62-0.26,1.16-0.67c0.99-0.75,1.87-3.24,1.71-6.48
		c-0.44-0.03-1.07-0.07-1.83-0.05c-1.99,0.05-3.33,0.08-4.38,0.91c-0.35,0.28-1.1,0.99-1.42,2.52c-0.38-1.82-1.31-2.53-1.64-2.74
		c-0.82-0.54-1.77-0.58-3.68-0.67c-0.85-0.04-1.54-0.02-2,0c-0.01,0.31-0.19,5.03,1.78,6.47c0.34,0.25,0.71,0.44,0.71,0.44
		c0.36,0.18,1.09,0.5,3.34,0.63c0.38,0.02,0.9,0.05,1.53,0.05c-0.01,2.56-0.03,5.13-0.04,7.69"/>
	<path class="st0" d="M1.4,17.54c3.09-0.31,8.38-0.33,13.59,2.55c1.03,0.57,1.94,1.19,2.75,1.82c1.41-1.09,3.56-2.48,6.45-3.47
		c4.06-1.38,7.6-1.27,9.64-1.05"/>
</g>
</svg>
