<?xml version="1.0" encoding="utf-8"?>
<!-- Generator: Adobe Illustrator 25.3.1, SVG Export Plug-In . SVG Version: 6.00 Build 0)  -->
<svg version="1.1" id="Layer_1" xmlns="http://www.w3.org/2000/svg" xmlns:xlink="http://www.w3.org/1999/xlink" x="0px" y="0px"
	 viewBox="0 0 100 100" style="enable-background:new 0 0 100 100;" xml:space="preserve">
<style type="text/css">
	.st0{fill:#C2D42E;}
	.st1{fill:#5B5E5F;}
	.st2{fill:#55A37C;}
	.st3{fill:#DAE145;}
	.st4{fill:#90BC43;}
	.st5{fill:#56A67E;}
</style>
<g>
	<path class="st0" d="M51.1,34.4c-0.3-0.3-0.6-0.6-1-0.8c-1.1-0.7-2.4-0.9-3.3-0.9c-5.2-0.1-14-1.5-16.8-0.7c-0.9,0.3-5.2,0.7-6,1
		c-6.1,2.6-1.9,9.7-3,13c-0.3,1,0.5,2.4,0.3,3.5l0,0c-0.2,1.2-0.4,2.5-0.5,3.8c-0.6,6.9,0,12.4,0,12.4c0,0.1,0.1,0.6,0.3,0.6
		c0,0,0.3,0,0.4-0.8C24.1,53.3,38,54.9,46.3,49.1l0,0c0.2-0.1,0.3-0.2,0.4-0.3l0,0c0.5-0.3,0.9-0.7,1.3-1.1c4.3-3.9,4.8-7.7,4.5-9.9
		c0-0.2,0-0.4,0-0.5c-0.2-0.9-0.4-1.5-0.5-1.5C51.8,35.2,51.5,34.8,51.1,34.4C51.1,34.4,51.1,34.4,51.1,34.4"/>
</g>
<path class="st1" d="M78.3,72H24.7C21,72,18,69,18,65.3V36.7c0-3.7,3-6.7,6.7-6.7h53.6c3.7,0,6.7,3,6.7,6.7v28.6
	C85,69,82,72,78.3,72z M24.7,34c-1.5,0-2.7,1.2-2.7,2.7v28.6c0,1.5,1.2,2.7,2.7,2.7h53.6c1.5,0,2.7-1.2,2.7-2.7V36.7
	c0-1.5-1.2-2.7-2.7-2.7H24.7z"/>
<path class="st1" d="M49.1,46H30c-0.8,0-1.5-0.7-1.5-1.5S29.2,43,30,43h19.1c0.8,0,1.5,0.7,1.5,1.5S49.9,46,49.1,46z"/>
<path class="st1" d="M61,56H30c-0.8,0-1.5-0.7-1.5-1.5S29.2,53,30,53h31c0.8,0,1.5,0.7,1.5,1.5S61.8,56,61,56z"/>
</svg>
