<?xml version="1.0" encoding="utf-8"?>
<!-- Generator: Adobe Illustrator 23.1.0, SVG Export Plug-In . SVG Version: 6.00 Build 0)  -->
<svg version="1.1" id="Layer_1" xmlns="http://www.w3.org/2000/svg" xmlns:xlink="http://www.w3.org/1999/xlink" x="0px" y="0px"
	 viewBox="0 0 612 500.1" style="enable-background:new 0 0 612 500.1;" xml:space="preserve">
<style type="text/css">
	.st0{stroke:#EF1414;stroke-miterlimit:10;}
	.st1{stroke:#EF1414;stroke-width:0.25;stroke-miterlimit:10;}
	.st2{fill:#D1D3D4;}
	.st3{fill:#565759;}
	.st4{fill:none;stroke:#565759;stroke-width:0.5;stroke-miterlimit:10;}
	.st5{fill:none;stroke:#565759;stroke-width:0.3;stroke-linejoin:round;stroke-miterlimit:10;}
</style>
<image style="overflow:visible;opacity:0.6;" width="539" height="533" xlink:href="D10B6600.jpg"  transform="matrix(-0.1834 -0.8844 0.9412 -0.1952 723.1426 990.0219)">
</image>
<image style="overflow:visible;opacity:0.7;" width="411" height="356" xlink:href="D10B6601.jpg"  transform="matrix(1.1995 0 0 1.5836 643.4066 -63.6786)">
</image>
<path class="st0" d="M1519.2,275.1c-14.7,0-26-9.9-26.8-23.4l1-0.1c0.8,13,11.6,22.5,25.8,22.5c14.3,0,26-11.7,26-26s-11.7-26-26-26
	c-11.3,0-24.9,8.8-26,20.5l-1-0.1c1.2-12.2,15.2-21.4,27-21.4c14.9,0,27,12.1,27,27S1534,275.1,1519.2,275.1z"/>
<path class="st1" d="M1432.2,277.4l-0.2,0l-98.6-19.1c-0.2,0-4.5-0.9-6.8-4.7c-1.7-2.9-1.9-6.6-0.4-11.1c4.2-13,5.8-54.8,5.8-55.3
	l0-0.1c0.1-0.3,1.8-6.7,10.4-8.3c7.1-1.3,71.8-22.1,81.9-40.4c5.8-10.4,4.7-11.2,1.9-13.3c-2.1-1.6-5-3.8-7.2-10l-0.1-0.2l19.2-34.1
	l47.1-15.9c0.4-0.1,8.9-1.8,7-18.5l1-0.1c2.1,17.7-7.3,19.5-7.7,19.5l-46.7,15.7L1420,115c2.1,5.8,4.8,7.9,6.8,9.4
	c3.5,2.6,4.3,4-1.6,14.6c-10.3,18.5-75.5,39.5-82.6,40.9c-7.7,1.4-9.4,6.9-9.6,7.5c-0.1,2.4-1.7,42.5-5.8,55.5
	c-1.4,4.2-1.2,7.7,0.3,10.3c2.1,3.5,6.1,4.3,6.1,4.3l98.5,19l42-23.6l26.6-15.4c6.7-11.3,18.5-10.7,18.6-10.7
	c11.8,0,21.4,9.6,21.4,21.5s-9.6,21.5-21.5,21.5c-12,0-21.4-9.1-21.4-20.7h1c0,11.1,9,19.7,20.4,19.7c11.3,0,20.5-9.2,20.5-20.5
	s-9.2-20.5-20.5-20.5c-0.1,0-11.3-0.6-17.8,10.3l-0.1,0.1l-26.8,15.6L1432.2,277.4z"/>
<path class="st0" d="M1519.2,258.4c-5.7,0-10.3-4.6-10.3-10.3s4.6-10.3,10.3-10.3s10.3,4.6,10.3,10.3S1524.8,258.4,1519.2,258.4z
	 M1519.2,238.9c-5.1,0-9.3,4.2-9.3,9.3s4.2,9.3,9.3,9.3c5.1,0,9.3-4.2,9.3-9.3S1524.3,238.9,1519.2,238.9z"/>
<path class="st1" d="M1433.2,285.4l-0.2,0l-102.3-19c-0.1,0-4.4-0.3-8-4.8c-4.5-5.7-5.6-15.1-3.5-27.9c5-29.8,5.3-45.2,5.3-46.3
	c-0.2-1-1.9-11.2,17.2-16.4c6-1.6,59.3-16.5,77.1-37.6l-9.5-20l0.1-0.2l22.2-37.6l48.9-17.9l1.5-11.3l1,0.1l-1.6,11.9l-49.2,18
	l-21.9,37.1l9.5,20.1l-0.2,0.2c-17.8,21.4-71.7,36.5-77.8,38.1c-18.8,5.1-16.5,15.1-16.5,15.2l0,0.1c0,0.2-0.1,15.7-5.3,46.5
	c-2.6,15.6,0.3,23.4,3.2,27.1c3.3,4.2,7.3,4.5,7.4,4.5l102.2,19l34.7-20l43.9-23.1l0.5,0.9l-43.9,23.1L1433.2,285.4z"/>
<path class="st0" d="M1519.1,455.2c-120.1,0-217.8-92.4-217.8-206c0-113.6,97.7-206,217.8-206c120.1,0,217.8,92.4,217.8,206
	C1736.9,362.8,1639.2,455.2,1519.1,455.2z M1519.1,44.3c-119.6,0-216.8,91.9-216.8,205s97.3,205,216.8,205
	c119.6,0,216.8-91.9,216.8-205S1638.7,44.3,1519.1,44.3z"/>
<polygon class="st0" points="1609.8,75.3 1603.3,70.2 1609.7,62.3 1610.5,62.9 1604.7,70.1 1610.4,74.5 "/>
<g>
	<path class="st2" d="M201.3,115.7c-0.1-0.1-0.1-0.3,0-0.4c-0.2-0.1-0.3-0.3-0.3-0.6c0-0.1,0-0.2,0-0.3c-0.1-0.2-0.3-0.3-0.4-0.5
		c-0.1-0.2-0.3-0.5-0.2-0.7c0-0.2,0.2-0.4,0.3-0.6c0,0,0.1-0.1,0.1-0.1c0,0,0,0,0-0.1c0.6-0.8,1.1-1.7,1.7-2.6c0,0,0.1-0.1,0.1-0.1
		c0.1-0.1,0.1-0.3,0.2-0.4c-23.6,14-40.6,32.8-49.8,55.2c0.9-0.1,1.6-0.6,2.5-1c0.9-0.4,1.8-0.6,2.7-0.9c1-0.3,1.9-0.6,2.8-1
		c0.4-0.2,0.8-0.4,1.2-0.6c0.4-0.1,0.9-0.2,1.4-0.4c8.3-16.7,21.5-30.7,39.3-42C202.2,117.8,201.9,116.7,201.3,115.7z"/>
	<path class="st2" d="M313,101.4c0.1-1.1,0.1-2.3,0.5-3.3c-8.5-1.9-17.5-4.5-26.7-7.8c-2.3-1.3-11.8-6-26.7-1.9
		c-2.5,0.4-20.8,3.4-42.2,13.1c-0.5,0.9-1.1,1.8-1.6,2.7c-0.6,1.1-1,2.3-1.6,3.3c-1.1,2.1-2.2,4.1-3.4,6.1c2-1.1,4.1-2.2,6.2-3.2
		c23-11.2,43.8-14.2,44-14.3l0.5-0.1c13.2-3.7,20.5,0.9,20.8,1l0.4,0.3l0.5,0.2c10.4,3.8,20,6.5,28.8,8.4
		C312.7,104.5,312.9,103,313,101.4z"/>
	<path class="st2" d="M407.2,82.6c-0.9-0.3-1.4-1.4-1.7-2.3c-0.2-0.7-0.4-1.4-0.6-2c-1.2,0.7-3.6,1.9-4.7,1.3
		c-3.6,4-8.5,8.3-15,12.1c-14.6,8.4-33,11.5-54.5,9.2c0,1.2-0.3,2.3-0.4,3.5c-0.1,1.5-0.2,3-0.3,4.4c0,0,0,0,0,0.1
		c27.9,2.9,46.9-3.2,59.2-10.3c8.7-5,14.8-10.9,19.1-16.1C408,82.7,407.6,82.8,407.2,82.6z"/>
	<path class="st2" d="M159.8,188.4c13,8.2,36.2,5,69-9.6c2.1,0.2,7.8,1,14,3.6l0.9,0.4l1-0.1c1.3-0.1,9.2-1.5,37.8-17.4
		c1.1-0.4,4.1-1.2,6-0.4c0.5,0.2,1.1,0.7,1.6,2c0.5,1.5-1.8,5-4.1,7.2l-0.4,0.5c-4,5.2-39.5,51.1-41.2,65.5
		c-0.3,2.9-1.7,3.4-3.2,3.6c-4.9,0.6-14.5-4.6-18-13.8c-10.1-26.7-27.3-38.6-47.2-32.5l-0.5,0.2l-0.5,0.3c-0.4,0.2-9.6,6.2-8.2,22.3
		l-0.1,0l0.1,0.3c0,0.2-0.1,0.9-0.8,1.6c-1,1.1-3.8,2.9-11.5,2.9c-11,0-25.4,3.6-35.1,10.5c0,1.4-0.5,2.7-0.8,4.1
		c-0.3,1.5-0.8,2.9-1.2,4.3c-0.4,1.5-0.7,2.9-0.7,4.5c0,0.7-0.1,1.4,0.2,2c0.1,0.1,0.1,0.3,0.2,0.4c0.4-1.9,1.5-3.8,3.3-5.7
		c6.5-7,21.3-12.2,34.2-12.2c8.5,0,14.5-2,17.7-5.8c2.7-3.2,2.6-6.6,2.5-7.7c-0.8-9.5,3-13.5,4.2-14.6c20.6-5.7,31.8,15,36.8,27.9
		c4.7,12.5,17.8,20,26.5,18.9c5.6-0.7,9.4-4.7,10.1-10.6c1.1-9.1,24.6-42.3,39.4-61.3c1.9-1.8,8.2-8.6,6-15.3
		c-1.1-3.2-3.1-5.5-5.9-6.8c-5.5-2.5-11.8,0.1-12.5,0.4l-0.4,0.2c-22.7,12.6-31.5,15.6-34.1,16.3c-8.7-3.3-16-3.8-16.4-3.8l-1-0.1
		l-0.9,0.4c-40.1,18-56.2,14.4-62.2,10.6c-4.6-2.9-5.6-7.1-5.9-8.5c0.2-0.5,0.4-1.1,0.6-1.6c-1.4,0.6-2.8,1-4.1,1.5
		c-0.8,0.3-1.6,0.5-2.4,0.9c-0.6,0.3-1.3,0.5-1.9,0.6C151.1,177.6,152.9,184,159.8,188.4z"/>
	<path class="st2" d="M198.6,271.6c0.1,0,0.2,0.1,0.2,0.2c7.6-10.4,18.2-11,20.7-11h0c0.3,0.2,1.1,0.7,1.5,1.8
		c0.5,1.5,0.9,5.2-3,12.9c0.8,0.2,1.5,0.3,2.3,0.4c0.9,0.1,1.7,0.4,2.6,0.4c0.8,0,1.4-0.5,2-0.9c0.4-0.3,0.8-0.5,1.1-0.7
		c0.3-0.2,0.6-0.5,1-0.8c0.2-0.1,0.4-0.1,0.5,0c2.1-5.5,2.4-10.2,1-14c-2-5.6-6.9-6.8-7.4-7l-0.3-0.1l-0.3,0
		c-0.8-0.1-19.3-1-30.1,17.3c0.2,0,0.5,0.1,0.7,0.1c0.7,0.2,1.5,0.2,2.3,0.4C195.1,270.9,196.9,271.1,198.6,271.6z"/>
	<path class="st2" d="M196.3,329.5c1-0.7,2.1-1.3,3.3-1.4c1.1,0,2,0.4,2.7,1.1c1.1-1.3,2.4-2.7,4.2-4.3c3.7-3.4,5.5-8.5,4.6-13.7
		c-1.2-7.2,3.7-16.1,4.4-17.4c2.4-3.2,4.5-6.2,6.3-9.1c-1.3-0.2-2.6-0.5-3.9-0.7c-0.2,0-0.4-0.1-0.6-0.1c0,0,0,0,0,0
		c-0.1,0.1-0.2,0.1-0.4,0.1c-0.2,0-0.5-0.1-0.7-0.1c-0.1,0-0.2,0-0.3,0c-0.1,0-0.3-0.1-0.4-0.1c0,0-0.1-0.1-0.1-0.2
		c-0.7-0.1-1.5-0.1-2.2-0.2c-1.2,1.8-2.6,3.8-4.2,5.9l-0.2,0.4c-0.3,0.5-7.3,12.3-5.5,22.9c0.4,2.5-0.4,5-2.1,6.5
		c-5.9,5.3-9.2,10.2-10,14.7C192.7,332,194.5,330.7,196.3,329.5z"/>
	<path class="st2" d="M507.3,226.4c-3.5-5.8-8.2-9.2-13.8-10.1c-9.6-1.5-18.6,5.1-20.4,6.5c-0.5,0.3-2.8,1.3-5.6,0.4
		c-3-1-7.5-4.4-11.7-15.1C445.2,181,386,170.4,383.5,170l-0.4,0c-13-0.9-38.8,4.7-43,32.3c-4.5,29.5-1.8,33-0.7,34.5
		c0.3,0.4,0.6,0.7,1,0.9l-2.1,2.6l-19.2,2.7l1.1,7.9l14.9-2.1l14.3,30.4l6.6,7.6v5.2c0,5,4,9,9,9h11.2c5,0,9-4,9-9v-11.2
		c0-5-4-9-9-9h-10.6c-7.4-3.2-12-6.9-13-10.6c-0.6-2.3,0.2-4.3,0.8-5.4c7.8-2.5,11.5-7.7,13.1-10.8c0.9-1.6,0.9-3.5,0.2-5.2
		c-0.7-1.7-2.1-3-3.9-3.5l-17-5.1c-0.3-2.3-0.6-9.2,2.2-27.7c4-26.4,31.6-25.6,34.4-25.5c16.1,2.8,58.6,14.1,66,33.1
		c4.3,11,9.9,17.6,16.7,19.8c6.8,2.2,12-1,12.5-1.3l0.4-0.3c0.1-0.1,7.4-6,14.2-5c3.3,0.5,6,2.6,8.3,6.4c2.5,4.1,3.3,7.8,2.4,11.5
		c-1.7,6.9-8.8,11.2-8.9,11.2l-0.8,0.5L474,282.4l-12.1-6l2.8-10.8c0.6-2.3-0.8-4.6-3.1-5.2l-15.5-4c-2.3-0.6-4.6,0.8-5.2,3.1
		l-6.3,24.3c-0.6,2.3,0.8,4.6,3.1,5.2l15.5,4c2.3,0.6,4.6-0.8,5.2-3.1l1.5-5.9l9.9,4.7l-11.2,16.7l-0.3,0.5l-0.2,0.5
		c-0.1,0.3-10.4,32.6-15.9,59.4c-1.5,7.4-4,12-7,13c-2.7,0.9-5.9-1.1-7.2-2c-5.6-12.9-12-13.7-15.3-12.9c-7.4,1.6-11.4,12.4-11,29
		c0.2,8-1.2,13.5-4.3,15.8c-2.8,2.1-6.6,0.9-6.6,0.9l-0.4-0.1l-43-6.3c-13.8-8.9-24.9-3.8-28.8,0.2l-0.4,0.4l-0.3,0.4
		c0,0.1-3.9,6.4-10.9,8c-4.9,1.1-10.3-0.3-16.2-4.2c-21.2-14.2-39.3-4.6-43.1-2.4c-4.5,1.1-34.9,7.3-45.2-11.3
		c-2.2-4-2.6-7.7-1.2-11.6c3.8-10.5,20.1-18.8,26.1-21.2l0.5-0.2c2.5-1.4,10.8-6.5,11.7-15.1c0.6-5.5-1.9-10.7-7.5-15.6
		c-4.1-3.6-9.7-0.5-15.6,2.8c-2.4,1.3-5.1,2.8-7.7,3.9c0.3,0.5,0.6,1.1,0.7,1.8c0.1,0.9-0.1,1.7-0.7,2.4c-0.6,0.9-1.5,1.4-2.4,2
		c0,0.2-0.1,0.3-0.2,0.4c-0.4,0.2-0.8,0.5-1.3,0.7c0,0-0.1,0-0.1,0.1c0.1,0.1,0.1,0.3,0,0.4c-0.5,0.7-1.3,1-1.9,1.6c0,0,0,0,0,0
		c6,0.1,12.4-3.4,17.4-6.2c2.2-1.2,5.5-3,7-3.3c3.1,2.9,4.6,5.6,4.3,8.2c-0.4,3.7-4.2,7-7.4,8.8c-2.8,1.1-24.9,10.5-30.5,25.8
		c-2.2,6-1.6,12.1,1.7,18.2c14,25.4,53.1,15.4,54.8,15l0.7-0.2l0.6-0.4c0.2-0.1,15.9-10.6,34.8,2c5.9,3.9,11.7,5.9,17.2,5.9
		c1.7,0,3.5-0.2,5.2-0.6c9-2.1,14.3-9.1,15.6-11.2c1.6-1.3,8.3-5.9,19.2,1.5l0.8,0.5l44.1,6.4c1.7,0.5,8.1,1.9,13.5-2.1
		c5.4-3.9,7.9-11.5,7.6-22.5c-0.5-15.1,3.2-20.6,4.6-20.9c0.7-0.1,3.6,1.7,6.7,9.1l0.3,0.8l0.7,0.6c0.3,0.3,7.7,6.8,15.6,4.2
		c6-2,10.2-8.4,12.4-19c5-24.5,14.2-53.7,15.5-58l33.2-49.7c2.5-1.7,9.6-7,11.7-15.6C512,238.3,510.9,232.4,507.3,226.4z"/>
	<path class="st2" d="M193,279.7c-0.6-0.2-1.2-0.4-1.8-0.4c-0.2,0-0.4-0.2-0.5-0.3c-0.1,0-0.3,0-0.4-0.1c-1.3-0.2-2.7-0.5-4-0.6
		c-4.2,8.8-9.7,16.3-12.8,20.1c-1,1.3-2.4,2.3-4,2.8c-9.3,3.3-16.7,3.2-21.9-0.2c-7.3-4.7-8.9-14.7-9.2-16.7
		c0.3-2.6,0.9-12.2-4.9-15.9c-1.2,0.2-2.5-0.5-3.7-0.7c-0.6-0.1-1.1-0.2-1.6-0.4c-0.1,0.1-0.3,0.2-0.5,0.1c-0.1,0-0.2,0-0.3-0.1
		c0,0-0.1,0-0.1,0c0,0,0,0,0,0c0,0-0.1,0-0.1,0c-0.2,0-0.4,0-0.6-0.1c-0.4,0-0.8-0.1-1.2-0.1c-0.2,0-0.4-0.1-0.4-0.3
		c-1.1-0.1-2.2-0.3-3.2-0.5c-1.2-0.2-2.3-0.9-3.5-1.2c-0.5-0.1-1.1-0.3-1.5-0.6c-0.4-0.3-0.7-0.8-1.2-1.1c-0.5-0.3-0.9-0.6-1.2-1
		c-0.3-0.5-0.6-0.9-1.1-1.3c-1.8-1.6-2.8-4-3.3-6.3c-0.3-1.3-0.4-2.6-0.6-3.9c-0.1-0.5-0.1-0.9-0.2-1.4c-0.3,1.4-0.4,2.7-0.3,4.1
		c1,16.6,12.7,19.5,18.9,21.1c0.4,0.1,0.8,0.2,1.2,0.3c1.2,0.3,1.9,4.8,1.4,8.6l-0.1,0.4l0,0.4c0.1,0.6,1.4,15.7,12.8,23.1
		c7.5,4.9,17.2,5.2,29,1.1c3-1,5.6-2.9,7.6-5.3c3.6-4.4,10.1-13.3,14.7-23.6C194,279.8,193.5,279.8,193,279.7z"/>
	<g>
		<path class="st3" d="M345.5,6.9c5.1,0,10.3,0.6,15.4,1.7c19,4.1,35,15.1,45.1,31.1l10.1,16c9.6,15.1,25.4,25.6,43.4,28.9l19.1,3.5
			c19.5,3.5,36.7,14.9,47.2,31.1c9.9,15.4,13,33.5,8.6,50.9l-4.5,18c-4.2,16.9-0.6,34.8,9.9,49.2l11.2,15.3
			c11.3,15.4,15.3,33.9,11.4,52c-3.9,18.2-15.2,33.4-31.7,42.8l-16.5,9.4c-15.5,8.8-26.2,23.7-29.2,40.8l-3.2,18.2
			c-3.1,17.7-13.3,32.9-28.7,42.9c-11.3,7.3-24.5,11.2-38.3,11.2c-5.9,0-11.8-0.7-17.5-2.1l-18.9-4.7c-5.3-1.3-10.7-2-16-2
			c-12.8,0-25,3.6-35.4,10.5l-15.8,10.4c-11.4,7.5-24.7,11.5-38.5,11.5c-5.1,0-10.3-0.6-15.4-1.7c-19-4.1-35-15.1-45.1-31.1
			l-10.1-16c-9.6-15.1-25.4-25.6-43.4-28.9l-19.1-3.5c-19.5-3.5-36.7-14.9-47.2-31.1c-9.9-15.4-13-33.5-8.6-50.9l4.5-18
			c4.2-16.9,0.6-34.8-9.9-49.2l-11.2-15.3c-11.3-15.4-15.3-33.9-11.4-52c3.9-18.2,15.2-33.4,31.7-42.8l16.5-9.4
			c15.5-8.8,26.2-23.7,29.2-40.8l3.2-18.2c3.1-17.7,13.3-32.9,28.7-42.9c11.3-7.3,24.5-11.2,38.3-11.2c5.9,0,11.8,0.7,17.5,2.1
			l18.9,4.7c5.3,1.3,10.7,2,16,2c12.8,0,25-3.6,35.4-10.5L307,18.4C318.4,10.8,331.7,6.9,345.5,6.9 M255.8,45.3
			c-5.9,0-11.8-0.7-17.5-2.1l-18.9-4.7c-5.2-1.3-10.6-2-16-2c-12.6,0-24.7,3.5-35,10.2c-14,9.1-23.2,22.9-26.1,38.9l-3.2,18.2
			c-3.4,18.9-15.1,35.3-32.2,45l-16.5,9.4c-15.1,8.6-25.3,22.3-28.8,38.8c-3.5,16.5,0.2,33.2,10.4,47.2l11.2,15.3
			c11.6,15.9,15.6,35.6,10.9,54.2l-4.5,18c-4,15.8-1.2,32.2,7.8,46.2c9.6,14.9,25.3,25.3,43.2,28.5l19.1,3.5
			c19.7,3.6,37,15.1,47.4,31.6l10.1,16c9.3,14.6,23.9,24.7,41.3,28.5c4.7,1,9.4,1.5,14.2,1.5c12.6,0,24.8-3.6,35.2-10.5l15.8-10.4
			c11.4-7.5,24.8-11.5,38.7-11.5c5.9,0,11.8,0.7,17.5,2.1l18.9,4.7c5.2,1.3,10.6,2,16,2c12.6,0,24.7-3.5,35-10.2
			c14-9.1,23.2-22.9,26.1-38.9l3.2-18.2c3.4-18.9,15.1-35.3,32.2-45l16.5-9.4c15.1-8.6,25.3-22.3,28.8-38.8
			c3.5-16.5-0.2-33.2-10.4-47.2l-11.2-15.3c-11.6-15.9-15.6-35.6-10.9-54.2l4.5-18c4-15.8,1.2-32.2-7.8-46.2
			c-9.6-14.9-25.3-25.3-43.2-28.5l-19.1-3.5c-19.7-3.6-37-15.1-47.4-31.6l-10.1-16c-9.3-14.6-23.9-24.7-41.3-28.5
			c-4.7-1-9.4-1.5-14.2-1.5c-12.6,0-24.8,3.6-35.2,10.5l-15.8,10.4C283.1,41.4,269.7,45.3,255.8,45.3 M345.5,5.9
			c-13.9,0-27.4,4-39.1,11.7L290.6,28c-10.3,6.8-22.5,10.3-34.9,10.3c-5.3,0-10.6-0.6-15.8-1.9l-18.9-4.7
			c-5.8-1.5-11.8-2.2-17.7-2.2c-13.8,0-27.3,3.9-38.9,11.4c-15.6,10.1-26,25.6-29.1,43.5l-3.2,18.2c-3,16.8-13.5,31.4-28.7,40.1
			l-16.5,9.4c-16.8,9.6-28.3,25-32.2,43.4c-4,18.5,0.2,37.2,11.6,52.8l11.2,15.3c10.4,14.2,13.9,31.8,9.8,48.4l-4.5,18
			c-4.4,17.7-1.3,36,8.7,51.7c10.6,16.5,28.1,28,47.8,31.6l19.1,3.5c17.8,3.2,33.4,13.6,42.8,28.4l10.1,16
			c10.3,16.2,26.5,27.4,45.8,31.6c5.2,1.1,10.4,1.7,15.6,1.7c0,0,0,0,0,0c13.9,0,27.4-4,39.1-11.7l15.8-10.4
			c10.3-6.8,22.5-10.3,34.9-10.3c5.3,0,10.6,0.6,15.8,1.9l18.9,4.7c5.8,1.5,11.8,2.2,17.7,2.2c13.8,0,27.3-3.9,38.9-11.4
			c15.6-10.1,26-25.6,29.1-43.5l3.2-18.2c3-16.8,13.5-31.4,28.7-40.1l16.5-9.4c16.8-9.6,28.3-25,32.2-43.4
			c4-18.5-0.2-37.2-11.6-52.8l-11.2-15.3c-10.4-14.2-13.9-31.8-9.8-48.4l4.5-18c4.4-17.7,1.3-36-8.7-51.7
			c-10.6-16.5-28.1-28-47.8-31.6l-19.1-3.5c-17.8-3.2-33.4-13.6-42.8-28.4l-10.1-16c-10.3-16.2-26.5-27.4-45.8-31.6
			C355.9,6.4,350.7,5.9,345.5,5.9L345.5,5.9z M255.8,46.3c14,0,27.7-4,39.3-11.7l15.8-10.4c10.4-6.8,22.3-10.4,34.7-10.4
			c4.6,0,9.3,0.5,13.9,1.5c17.1,3.7,31.6,13.6,40.7,28l10.1,16c10.6,16.7,28.1,28.4,48.1,32l19.1,3.5c17.6,3.2,33.1,13.4,42.5,28
			c8.9,13.8,11.6,29.9,7.7,45.4l-4.5,18c-4.8,18.9-0.7,38.9,11.1,55l11.2,15.3c10.1,13.7,13.7,30.2,10.2,46.4
			c-3.5,16.2-13.5,29.7-28.4,38.2l-16.5,9.4c-17.4,9.9-29.3,26.5-32.7,45.7l-3.2,18.2c-2.8,15.7-11.9,29.3-25.6,38.2
			c-10.2,6.6-22.2,10.1-34.5,10.1c-5.3,0-10.6-0.6-15.8-1.9l-18.9-4.7c-5.9-1.5-11.8-2.2-17.7-2.2c-14,0-27.7,4-39.3,11.7
			l-15.8,10.4c-10.4,6.8-22.3,10.4-34.7,10.4c-4.6,0-9.3-0.5-13.9-1.5c-17.1-3.7-31.6-13.6-40.7-28L208,441
			c-10.6-16.7-28.1-28.4-48.1-32l-19.1-3.5c-17.6-3.2-33.1-13.4-42.5-28c-8.9-13.8-11.6-29.9-7.7-45.4l4.5-18
			c4.8-18.9,0.7-38.9-11.1-55l-11.2-15.3C62.6,230,59,213.5,62.5,197.3c3.5-16.2,13.5-29.7,28.4-38.2l16.5-9.4
			c17.4-9.9,29.3-26.5,32.7-45.7l3.2-18.2c2.8-15.7,11.9-29.3,25.6-38.2c10.2-6.6,22.2-10.1,34.5-10.1c5.3,0,10.6,0.6,15.8,1.9
			l18.9,4.7C243.9,45.6,249.8,46.3,255.8,46.3L255.8,46.3z"/>
	</g>
	<path class="st4" d="M309.9,42.8c-120.4,0-218.3,92.6-218.3,206.5s97.9,206.5,218.3,206.5c120.4,0,218.3-92.6,218.3-206.5
		S430.2,42.8,309.9,42.8z M309.9,44.8c5.4,0,10.8,0.2,16.2,0.6l-4.9,50.3l-3.3-0.3c-2.4-0.2-4.6,1.6-4.8,4.1l-0.8,8.8
		c-0.1,1.2,0.3,2.3,1,3.3c0.8,0.9,1.8,1.5,3,1.6l3.1,0.3L309,221.1c-11.5,0.5-24.7,9.3-26,21.1l-18.2,10.5l-42,23.6l-98.5-19
		c0,0-4.1-0.8-6.1-4.3c-1.6-2.6-1.7-6.1-0.3-10.3c0.6-2,1.2-4.5,1.7-7.5c2.9-16.7,4-45.9,4.1-47.9c0.2-0.6,1.9-6,9.6-7.5
		c7.1-1.3,72.3-22.4,82.6-40.9c5.9-10.6,5.1-12,1.6-14.6c-2-1.5-4.7-3.5-6.8-9.4l18.8-33.4l46.7-15.7c0.4-0.1,9.8-1.9,7.7-19.5
		l-1,0.1c1.9,16.7-6.5,18.4-7,18.5L229,80.8l-0.2,0.1l-19.2,34.1l0.1,0.2c2.2,6.3,5.1,8.5,7.2,10c2.8,2.1,3.9,2.9-1.9,13.3
		c-10.2,18.2-74.8,39-81.9,40.4c-8.7,1.6-10.3,8-10.4,8.3l0,0.1c0,0.4-1.6,42.3-5.8,55.3c-1.4,4.5-1.3,8.2,0.4,11.1
		c2.3,3.9,6.6,4.7,6.8,4.7l98.6,19.1l0.2,0l42.4-23.8l26.8-15.6l0.1-0.1c6.4-10.9,17.6-10.3,17.8-10.3c11.3,0,20.5,9.2,20.5,20.5
		s-9.2,20.5-20.5,20.5c-11.3,0-20.2-8.5-20.4-19.5l11.4-6c-0.8,1.5-1.3,3.2-1.3,5c0,5.7,4.6,10.3,10.3,10.3s10.3-4.6,10.3-10.3
		s-4.6-10.3-10.3-10.3c-3,0-5.8,1.3-7.7,3.4l-43.8,23.1l-34.7,20l-102.2-19c0,0-4.1-0.3-7.4-4.5c-2.9-3.7-5.9-11.5-3.2-27.1
		c5.2-30.8,5.3-46.3,5.3-46.5l0-0.1c0-0.1-2.3-10.1,16.5-15.2c6.1-1.6,60-16.7,77.8-38.1l0.2-0.2l-9.5-20.1l21.9-37.1l49.2-18
		l1.5-10.8C285.5,45.8,297.6,44.8,309.9,44.8z M323,97.8l3.5,0.3c1.4,0.1,2.4,1.3,2.2,2.7l-0.8,8.8c-0.1,1.4-1.3,2.4-2.7,2.2
		l-3.6-0.3L323,97.8z M321,97.6l-1.3,13.7l-3.1-0.3c-0.7-0.1-1.2-0.4-1.7-0.9c-0.4-0.5-0.6-1.1-0.6-1.8l0.8-8.8
		c0.1-1.3,1.2-2.2,2.5-2.2c0.1,0,0.1,0,0.2,0L321,97.6z M309.9,222.1c14.3,0,26,11.7,26,26s-11.7,26-26,26
		c-14.1,0-24.8-9.3-25.7-22.2l4.4-2.3c0.4,11.2,9.6,19.9,21.4,19.9c11.8,0,21.5-9.6,21.5-21.5s-9.6-21.5-21.4-21.5
		c-0.1,0-11.8-0.6-18.6,10.7l-7.3,4.2C285.8,230.4,298.9,222.1,309.9,222.1z M309.9,238.9c5.1,0,9.3,4.2,9.3,9.3s-4.2,9.3-9.3,9.3
		c-5.1,0-9.3-4.2-9.3-9.3S304.8,238.9,309.9,238.9z M93.5,249.2c0-100.8,77.6-184.8,179.2-201.4l-1.3,9.9l-48.8,17.8l-0.2,0.1
		l-22.4,37.8l9.5,20c-17.8,21.1-71,35.9-77.1,37.6c-19.2,5.2-17.5,15.4-17.2,16.4c0,1-0.2,16.5-5.3,46.3c-2.2,12.9-1,22.2,3.5,27.9
		c3.6,4.5,7.9,4.8,8,4.8l102.5,19l35-20.1l24.3-12.8c0.4,4.9,2.2,9.3,5.1,12.9l-82.5,67.4l-2.4-3c-0.7-0.9-1.8-1.5-3-1.7
		c-1.2-0.1-2.4,0.2-3.3,0.9l-6.9,5.5c-1.9,1.5-2.2,4.3-0.7,6.3l2.5,3.2l-46.6,38C113.1,346.2,93.5,299.8,93.5,249.2z M205.5,335.5
		l1.8,2.3c0.4,0.5,0.6,1.2,0.5,1.8c-0.1,0.7-0.4,1.2-0.9,1.6l-6.9,5.5c-1.1,0.8-2.6,0.7-3.5-0.4l-1.7-2.2L205.5,335.5z M193.6,342.6
		l-2.5-3.1c-0.8-1.1-0.7-2.6,0.4-3.5l6.9-5.5c0.4-0.3,1-0.5,1.5-0.5c0.1,0,0.2,0,0.3,0c0.7,0.1,1.2,0.4,1.6,0.9l2.4,3L193.6,342.6z
		 M309.9,453.7c-65,0-123.4-27.2-163.1-70.3l46.5-38l1.7,2.2c0.9,1.1,2.2,1.7,3.5,1.7c1,0,2-0.3,2.8-1l6.9-5.5
		c0.9-0.7,1.5-1.8,1.7-3s-0.2-2.3-0.9-3.3l-1.9-2.3l82.6-67.4c4.8,5.2,12,8.3,20.3,8.3c14.9,0,27-12.1,27-27c0-14.5-11.6-26.4-26-27
		l10.5-107.7l3.7,0.3c0.1,0,0.3,0,0.4,0c2.3,0,4.2-1.8,4.4-4.1l0.8-8.8c0.2-2.5-1.6-4.6-4.1-4.8l-3.5-0.3l4.9-50.3
		c25.8,2,50.3,8.4,72.7,18.2l-4.2,6.7l6.6,3.3l0.6-0.9L398,70l3.7-5.9c6.2,2.8,12.3,5.8,18.1,9.1l-2.8,5.9l-6.1-2.4l-0.4,1l6.9,2.6
		l3.2-6.6c63.1,35.7,105.5,101,105.5,175.5C526.2,362,429.1,453.7,309.9,453.7z"/>
	<path class="st5" d="M410.8,76.8l-2.7,5.9c0,0-5.4-0.9-1.3-6.8c0,0-2,4.8-6.7,3.9l3.4-6.6"/>
</g>
</svg>
