<?xml version="1.0" encoding="utf-8"?>
<!-- Generator: Adobe Illustrator 25.3.1, SVG Export Plug-In . SVG Version: 6.00 Build 0)  -->
<svg version="1.1" id="Layer_1" xmlns="http://www.w3.org/2000/svg" xmlns:xlink="http://www.w3.org/1999/xlink" x="0px" y="0px"
	 viewBox="0 0 100 100" style="enable-background:new 0 0 100 100;" xml:space="preserve">
<style type="text/css">
	.st0{fill:#C2D42E;}
	.st1{fill:#5B5E5F;}
	.st2{fill:#55A37C;}
	.st3{fill:#DAE145;}
	.st4{fill:#90BC43;}
	.st5{fill:#56A67E;}
</style>
<g>
	<path class="st1" d="M65.9,22.7H34.1c-6.3,0-11.5,5.1-11.5,11.4v31.7c0,6.3,5.1,11.4,11.5,11.4h31.7c6.3,0,11.5-5.1,11.5-11.4V34.1
		C77.3,27.8,72.2,22.7,65.9,22.7 M73.1,65.9c0,4-3.3,7.3-7.3,7.3H34.1c-4,0-7.3-3.3-7.3-7.3V34.1c0-4,3.2-7.2,7.3-7.2h31.7
		c4,0,7.3,3.2,7.3,7.3V65.9z"/>
	<path class="st1" d="M50.9,66.2c1.2-0.3,1.9-1.5,1.6-2.7c-0.3-1.2-1.5-1.9-2.7-1.6c-1.2,0.3-1.9,1.5-1.6,2.7
		C48.5,65.8,49.7,66.5,50.9,66.2"/>
	<path class="st3" d="M54.3,41c-0.1-0.7-0.3-1.4-0.6-2c0,0-0.4-0.9-1-1.7c-0.5-0.5-1.3-0.8-2-0.6c-0.8,0.2-1.9,0.9-3.2,2.7
		c-0.4,0.5-0.7,1.1-1,1.6c-0.8,1.3-1.2,2.5-1.4,3.6c-0.2,1.1-0.3,2.1-0.2,2.8c0,0,0,0,0,0c0.2,2.7,1.4,5.8,3.4,9.5
		c0.1,0.2,0.2,0.3,0.2,0.3c0,0.1,0.1,0.1,0.1,0.1c0,0,0,0,0.1,0c0,0,0.1-0.1,0.1-0.1C49.5,48.6,55.2,46.6,54.3,41"/>
	<path class="st1" d="M58.3,40.3c-0.2-1-0.5-2-0.9-2.9c-0.3-0.8-1.5-3.2-3.6-4.3c-0.5-0.3-5-2.3-9.6,3.9c-0.5,0.6-0.9,1.3-1.3,1.9
		c-0.2,0.4-0.5,0.8-0.6,1.2c-0.2,0.5-0.4,1-0.6,1.4c-0.4,1.2,0.4,2.5,1.6,2.7c0.9,0.2,1.9-0.4,2.2-1.3c0.2-0.6,0.6-1.3,1-2
		c0.3-0.5,0.6-1,1-1.6c1.3-1.8,2.4-2.5,3.2-2.7c0.7-0.2,1.5,0.1,2,0.6c0.6,0.7,1,1.7,1,1.7h0c0.3,0.6,0.5,1.3,0.6,2
		c1,5.6-4.6,7.6-5.6,16c0,0-0.2,2,1.6,2.3c2,0.3,2.4-1.6,2.4-1.6c0.2-1.7,0.6-3.2,1.3-4.7c0.5-1,1.1-1.9,1.6-2.9
		c0.6-0.9,1.2-1.8,1.6-2.9C58.4,44.9,58.7,42.7,58.3,40.3"/>
</g>
</svg>
