<?xml version="1.0" encoding="utf-8"?>
<!-- Generator: Adobe Illustrator 25.3.1, SVG Export Plug-In . SVG Version: 6.00 Build 0)  -->
<svg version="1.1" id="Layer_1" xmlns="http://www.w3.org/2000/svg" xmlns:xlink="http://www.w3.org/1999/xlink" x="0px" y="0px"
	 viewBox="0 0 100 100" style="enable-background:new 0 0 100 100;" xml:space="preserve">
<style type="text/css">
	.st0{fill:#C2D42E;}
	.st1{fill:#5B5E5F;}
	.st2{fill:#55A37C;}
	.st3{fill:#DAE145;}
	.st4{fill:#90BC43;}
	.st5{fill:#56A67E;}
</style>
<g>
	<path class="st0" d="M49.6,74.7c0.4,0.1,0.8,0.2,1.2,0.3c1.3,0.1,2.5-0.1,3.3-0.4c4.6-1.8,7.9-4.3,9.9-6c0.6-0.5,1.2-1.1,1.7-1.6
		c4.1-4.3,4-9.4,3.4-12.5c-0.2-0.9-0.5-1.9-0.8-2.9l0,0c-0.4-1-0.8-2.2-1.4-3.3C64.2,42.4,61,38.1,61,38.1c-0.1-0.1-0.3-0.5-0.5-0.4
		c0,0-0.3,0.1,0,0.8c3.5,10.9-9.1,14.7-13.6,22.4l0,0c-0.1,0.1-0.2,0.3-0.2,0.4l0,0c-0.2,0.5-0.4,0.9-0.6,1.4
		c-1.9,4.8-0.5,8,0.8,9.8c0.1,0.1,0.2,0.3,0.3,0.4c0.6,0.7,1.1,1,1.1,1.1C48.6,74.3,49.1,74.5,49.6,74.7
		C49.6,74.7,49.6,74.7,49.6,74.7"/>
</g>
<path class="st1" d="M50.7,76.2c-7.6,0-14.3-3.9-18.1-10.5c-3.8-6.6-3.8-14.4,0-20.9l13.3-23c1-1.7,2.8-2.8,4.8-2.8
	c2,0,3.8,1,4.8,2.8l13.3,23c3.8,6.6,3.8,14.4,0,20.9C65,72.3,58.3,76.2,50.7,76.2z M49.3,23.8L36,46.8C33,52.1,33,58.5,36,63.8
	c3.1,5.3,8.5,8.5,14.7,8.5s11.6-3.2,14.7-8.5c3.1-5.3,3.1-11.6,0-16.9l-13.3-23C51.7,23.1,51,23,50.7,23
	C50.4,23,49.7,23.1,49.3,23.8L49.3,23.8z"/>
</svg>
