<?xml version="1.0" encoding="utf-8"?>
<!-- Generator: Adobe Illustrator 25.3.1, SVG Export Plug-In . SVG Version: 6.00 Build 0)  -->
<svg version="1.1" id="Layer_1" xmlns="http://www.w3.org/2000/svg" xmlns:xlink="http://www.w3.org/1999/xlink" x="0px" y="0px"
	 viewBox="0 0 100 100" style="enable-background:new 0 0 100 100;" xml:space="preserve">
<style type="text/css">
	.st0{fill:#C2D42E;}
	.st1{fill:#5B5E5F;}
	.st2{fill:#55A37C;}
	.st3{fill:#DAE145;}
	.st4{fill:#90BC43;}
	.st5{fill:#56A67E;}
</style>
<g>
	<path class="st1" d="M65.9,20.7H34.1c-6.3,0-11.5,5.1-11.5,11.4v31.7c0,6.3,5.1,11.4,11.5,11.4h31.7c6.3,0,11.5-5.1,11.5-11.4V32.1
		C77.3,25.8,72.2,20.7,65.9,20.7 M73.1,63.9c0,4-3.3,7.3-7.3,7.3H34.1c-4,0-7.3-3.3-7.3-7.3V32.1c0-4,3.2-7.2,7.3-7.2h31.7
		c4,0,7.3,3.2,7.3,7.3V63.9z"/>
</g>
<path class="st1" d="M49.2,33.2c0.6-1,2-1,2.6,0l3,5.3l3,5.3c0.6,1-0.1,2.2-1.3,2.2h-6.1h-6.1c-1.1,0-1.9-1.2-1.3-2.2l3-5.3
	L49.2,33.2z"/>
<path class="st1" d="M51.8,62.8c-0.6,1-2,1-2.6,0l-3-5.3l-3-5.3c-0.6-1,0.1-2.2,1.3-2.2h6.1h6.1c1.1,0,1.9,1.2,1.3,2.2l-3,5.3
	L51.8,62.8z"/>
</svg>
