<?xml version="1.0" encoding="utf-8"?>
<!-- Generator: Adobe Illustrator 25.3.1, SVG Export Plug-In . SVG Version: 6.00 Build 0)  -->
<svg version="1.1" id="Layer_1" xmlns="http://www.w3.org/2000/svg" xmlns:xlink="http://www.w3.org/1999/xlink" x="0px" y="0px"
	 viewBox="0 0 100 100" style="enable-background:new 0 0 100 100;" xml:space="preserve">
<style type="text/css">
	.st0{fill:#C2D42E;}
	.st1{fill:#5B5E5F;}
	.st2{fill:#55A37C;}
	.st3{fill:#DAE145;}
	.st4{fill:#90BC43;}
	.st5{fill:#56A67E;}
</style>
<g>
</g>
<g>
	<path class="st1" d="M65.9,22.7H34.1c-6.3,0-11.5,5.1-11.5,11.4v31.7c0,6.3,5.1,11.4,11.5,11.4h31.7c6.3,0,11.5-5.1,11.5-11.4V34.1
		C77.3,27.8,72.2,22.7,65.9,22.7 M73.1,65.9c0,4-3.3,7.3-7.3,7.3H34.1c-4,0-7.3-3.3-7.3-7.3V34.1c0-4,3.2-7.2,7.3-7.2h31.7
		c4,0,7.3,3.2,7.3,7.3V65.9z"/>
</g>
<path class="st1" d="M34,62.5v-7.1c0-0.8,0.6-1.5,1.5-1.5h4.1c0.8,0,1.5-0.6,1.5-1.5v-5.1c0-0.8,0.6-1.5,1.5-1.5h6.1
	c0.8,0,1.5-0.6,1.5-1.5v-6.1c0-0.8,0.6-1.5,1.5-1.5h12.1c0.8,0,1.5,0.6,1.5,1.5v24.1c0,0.8-0.6,1.5-1.5,1.5H35.5
	C34.6,64,34,63.4,34,62.5z"/>
</svg>
