<?xml version="1.0" encoding="utf-8"?>
<!-- Generator: Adobe Illustrator 25.3.1, SVG Export Plug-In . SVG Version: 6.00 Build 0)  -->
<svg version="1.1" id="Layer_1" xmlns="http://www.w3.org/2000/svg" xmlns:xlink="http://www.w3.org/1999/xlink" x="0px" y="0px"
	 viewBox="0 0 100 100" style="enable-background:new 0 0 100 100;" xml:space="preserve">
<style type="text/css">
	.st0{fill:#C2D42E;}
	.st1{fill:#5B5E5F;}
	.st2{fill:#55A37C;}
	.st3{fill:#DAE145;}
	.st4{fill:#90BC43;}
	.st5{fill:#56A67E;}
</style>
<g>
	<path class="st4" d="M34.1,73.2L34.1,73.2c0.6-14.3,9.9-19.7,4.8-31.7c-0.1-0.3-0.3-0.6-0.4-0.8c0,0,0,0,0,0
		c-0.2-0.3-0.4-0.6-0.5-0.8c-0.5-0.7-1.2-1.4-2.1-1.7c-0.7-0.2-1.6,0-2.2,0.3c-0.1,0-1.3,0.6-2.6,1.9c-1.2,1.2-2.7,3.2-4,6.2
		c-0.1,0.3-0.2,0.6-0.3,0.9c0,0,0,0,0,0c-2.9,8,0.6,16.5,6.8,25.6c0.1,0.1,0.3,0.4,0.4,0.4C34.1,73.4,34.1,73.2,34.1,73.2"/>
	<path class="st1" d="M36,31.9c2.2-0.5,3.5-2.7,2.9-4.9c-0.5-2.2-2.7-3.5-4.9-2.9c-2.2,0.6-3.5,2.7-2.9,4.9
		C31.6,31.1,33.8,32.4,36,31.9"/>
	<path class="st5" d="M39.7,53.3c0-0.1,0-0.2,0.1-0.2C39.7,53.2,39.7,53.2,39.7,53.3"/>
	<path class="st1" d="M42.2,40.4c-0.2-0.4-0.4-0.8-0.5-1.1c-0.3-0.5-0.5-0.9-0.7-1.1c-0.1-0.2-0.3-0.4-0.4-0.6
		c-1-1.2-2.2-2.1-3.5-2.5c-1.4-0.4-3-0.3-4.6,0.3l-0.2,0.1c-0.2,0.1-0.7,0.3-1.3,0.8c-0.2,0.2-0.4,0.3-0.6,0.5
		c-0.2,0.1-0.3,0.2-0.5,0.4c-0.3,0.3-0.7,0.6-1.1,1c-1.3,1.3-3.2,3.7-4.6,7.2c-0.1,0.3-0.3,0.7-0.4,1l0,0l0,0l0,0
		c-0.8,2.3-1.2,4.7-1.2,7c0,0.1,0,0.2,0,0.2c0.1,0.9,0.8,1.7,1.8,1.7c1,0,1.8-0.8,1.8-1.8h0c0-2,0.3-3.9,1-5.8c0,0,0,0,0,0
		c0.1-0.3,0.2-0.6,0.3-0.8c1.2-2.9,2.7-4.9,3.9-6.1c1.3-1.3,2.5-1.8,2.5-1.9c0.6-0.2,1.4-0.5,2.2-0.2c0.9,0.3,1.6,1.1,2,1.7
		c0.2,0.2,0.4,0.5,0.5,0.8c0.1,0.2,0.3,0.5,0.4,0.8c1.9,4.4,1.8,7.9,0.9,11.2c0,0.1,0,0.2-0.1,0.2c0,0.1,0,0.2,0,0.3
		c0,1,0.8,1.8,1.8,1.8c0.8,0,1.4-0.5,1.7-1.1c0-0.2,0.1-0.3,0.1-0.5C44.3,50,44.4,45.7,42.2,40.4"/>
	<path class="st1" d="M36.3,67.4c-0.8,0-1.5,0.5-1.7,1.2c-0.1,0.2-0.1,0.4-0.1,0.6c0,0,0,0,0,0.1c-0.2,1.1-0.3,2.3-0.4,3.5l0,0
		c0,0,0,0.3-0.2,0.3c-0.1,0-0.4-0.3-0.4-0.4c-0.8-1.3-1.6-2.5-2.3-3.7h0c-0.3-0.5-0.9-0.9-1.6-0.9c-0.2,0-0.5,0-0.7,0.1l-0.4,0.2
		c-0.5,0.3-0.8,0.9-0.8,1.5c0,0.2,0,0.3,0.1,0.5c0,0.1,0.1,0.1,0.1,0.2c0.1,0.2,0.3,0.4,0.4,0.6c0.7,1.2,1.5,2.4,2.3,3.6l0.2,0.3
		c1.3,1.6,2.8,1.7,3.7,1.6c1.7-0.3,3-1.6,3.2-3.3l0-0.3c0-0.4,0.1-0.8,0.1-1.2c0.1-0.7,0.2-1.4,0.3-2c0-0.1,0-0.2,0.1-0.4
		c0-0.1,0-0.1,0-0.2C38.2,68.2,37.3,67.4,36.3,67.4"/>
	<path class="st3" d="M67.5,38L67.5,38c-1.8,14.1-11.4,18.6-7.3,30.8c0.1,0.3,0.2,0.6,0.3,0.8c0,0,0,0,0,0c0.2,0.3,0.3,0.6,0.5,0.9
		c0.4,0.7,1.1,1.5,1.9,1.9c0.7,0.3,1.6,0.1,2.2-0.1c0.1,0,1.3-0.5,2.7-1.7c1.3-1.1,2.9-3,4.4-5.8c0.1-0.3,0.3-0.5,0.4-0.8
		c0,0,0,0,0,0c3.5-7.7,0.7-16.4-4.6-25.8c-0.1-0.1-0.3-0.4-0.4-0.4C67.6,37.8,67.5,38,67.5,38"/>
	<path class="st1" d="M67.8,31.2c2.2-0.5,3.5-2.7,2.9-4.9c-0.6-2.2-2.7-3.5-4.9-2.9c-2.2,0.5-3.5,2.7-2.9,4.9
		C63.4,30.4,65.6,31.7,67.8,31.2"/>
	<path class="st1" d="M71,36.9l-0.2-0.3c-1.2-1.7-2.7-1.9-3.5-1.8c-1.7,0.1-3.1,1.4-3.5,3.1l-0.1,0.3c-0.1,0.4-0.1,0.8-0.2,1.2
		c-0.3,1.7-0.7,3.2-1.2,4.6c-0.8,2.5-1.9,4.7-3,6.8c-1.1,2.3-2.3,4.6-3,7.1c-0.1,0.3-0.2,0.6-0.2,0.9c0,0,0,0,0,0
		c0,1,0.8,1.8,1.8,1.8c0.8,0,1.4-0.5,1.7-1.1c0-0.2,0.1-0.3,0.1-0.5c1.7-6,6.3-11.1,7.5-20.4v0c0,0,0-0.3,0.2-0.3
		c0.1,0,0.3,0.3,0.4,0.4c4.1,7.2,6.6,14,6,20.2c0,0.1,0,0.1,0,0.2c0,1,0.8,1.8,1.8,1.8c0.8,0,1.4-0.5,1.7-1.2c0-0.3,0.1-0.6,0.1-0.9
		C78.2,51.1,74.6,43.2,71,36.9"/>
	<path class="st1" d="M71.2,64.7L71,64.6c-0.3-0.2-0.6-0.3-1-0.3c-0.4,0-0.8,0.2-1.1,0.4c-0.2,0.2-0.4,0.5-0.5,0.7
		c-1.4,1.9-2.3,4.2-2.2,7.1c0,0.7-0.2,0.7-0.2,0.7c-0.2,0-0.3-0.3-0.3-0.4c0,0-0.3-0.9-0.8-2.5c0-0.2-0.1-0.4-0.2-0.5
		c-0.3-0.6-0.9-1.1-1.7-1.1c-0.3,0-0.5,0.1-0.7,0.2l-0.6,0.5c-0.3,0.3-0.5,0.7-0.5,1.2c0,0,0,0,0,0.1c0.1,0.3,0.2,0.6,0.2,0.8
		c0.5,1.6,0.8,2.6,0.8,2.6c0.4,1.1,1.1,1.9,1.9,2.3c0,0,1.1,0.6,2.6,0.3l0.2,0c1.4-0.4,2.9-1.8,2.8-4.3c-0.1-2,0.5-3.5,1.5-4.8
		c0.1-0.2,0.3-0.3,0.4-0.5c0.1-0.3,0.2-0.5,0.2-0.9C71.8,65.6,71.6,65.1,71.2,64.7"/>
	<path class="st1" d="M50.5,73.1c-1.1,0-1.9-0.9-1.9-1.9V28.8c0-1.1,0.9-1.9,1.9-1.9c1.1,0,1.9,0.9,1.9,1.9v42.4
		C52.4,72.3,51.5,73.1,50.5,73.1"/>
</g>
</svg>
