<?xml version="1.0" encoding="utf-8"?>
<!-- Generator: Adobe Illustrator 25.3.1, SVG Export Plug-In . SVG Version: 6.00 Build 0)  -->
<svg version="1.1" id="Layer_1" xmlns="http://www.w3.org/2000/svg" xmlns:xlink="http://www.w3.org/1999/xlink" x="0px" y="0px"
	 viewBox="0 0 100 100" style="enable-background:new 0 0 100 100;" xml:space="preserve">
<style type="text/css">
	.st0{fill:none;stroke:#FFFFFF;stroke-width:3;stroke-linecap:round;stroke-linejoin:round;stroke-miterlimit:10;}
	.st1{fill:none;stroke:#C63838;stroke-width:3;stroke-miterlimit:10;}
	.st2{fill:none;stroke:#C63838;stroke-width:3;stroke-linecap:round;stroke-miterlimit:10;}
	.st3{fill:none;stroke:#FFFFFF;stroke-width:3;stroke-miterlimit:10;}
	.st4{fill:none;stroke:#FFFFFF;stroke-width:3;stroke-linecap:round;stroke-miterlimit:10;}
	.st5{fill:#FFFFFF;stroke:#C63838;stroke-width:3;stroke-miterlimit:10;}
	.st6{fill:none;stroke:#C63838;stroke-width:3;stroke-linecap:round;stroke-linejoin:round;stroke-miterlimit:10;}
</style>
<path class="st0" d="M71.7,49.8c2.2-0.4,4.4-1.4,6.4-2.8c1.9-1.4,3.4-3.1,4.5-5.1c-6,1.2-12.4-1-16.2-6.2s-4-12-1-17.3
	c-2.2,0.4-4.3,1.3-6.2,2.7c-4.2,3.1-6.5,7.8-6.6,12.7"/>
<g>
	<path class="st3" d="M61.3,45.1c-1.4-6.8-7.4-12-14.7-12s-13.3,5.2-14.7,12l0,0c-6.8,0-12.3,5.5-12.3,12.3l0,0
		c0,5.4,4.3,9.7,9.7,9.7h34.6c5.4,0,9.7-4.3,9.7-9.7l0,0C73.6,50.6,68.1,45.1,61.3,45.1L61.3,45.1z"/>
</g>
</svg>
