<?xml version="1.0" encoding="utf-8"?>
<!-- Generator: Adobe Illustrator 25.3.1, SVG Export Plug-In . SVG Version: 6.00 Build 0)  -->
<svg version="1.1" id="Layer_1" xmlns="http://www.w3.org/2000/svg" xmlns:xlink="http://www.w3.org/1999/xlink" x="0px" y="0px"
	 viewBox="0 0 100 100" style="enable-background:new 0 0 100 100;" xml:space="preserve">
<style type="text/css">
	.st0{fill:none;stroke:#FFFFFF;stroke-width:3;stroke-miterlimit:10;}
	.st1{fill:none;stroke:#FFFFFF;stroke-width:3;stroke-linecap:round;stroke-miterlimit:10;}
	.st2{fill:#FFFFFF;stroke:#FFFFFF;stroke-width:3;stroke-miterlimit:10;}
	.st3{fill:none;stroke:#FFFFFF;stroke-width:3;stroke-linecap:round;stroke-linejoin:round;stroke-miterlimit:10;}
</style>
<g>
	<path class="st0" d="M69,40.5c-0.6,0-1-0.5-1-1.1c0-0.3,0-0.6,0-0.9C68,29.4,60.6,22,51.5,22c-7.2,0-13.3,4.6-15.6,11.1
		c-0.1,0.2-0.3,0.4-0.6,0.4l0,0c-6.5,0-11.8,5.3-11.8,11.8l0,0c0,6.2,5,11.2,11.2,11.2h9.8h10H68c4.7,0,8.5-3.8,8.5-8.5l0,0
		C76.5,43.9,73.1,40.5,69,40.5L69,40.5z"/>
	<line class="st3" x1="40" y1="61.5" x2="38" y2="70.5"/>
	<line class="st3" x1="48" y1="61.5" x2="44.5" y2="78"/>
	<line class="st3" x1="56" y1="61.5" x2="52.5" y2="78"/>
	<line class="st3" x1="64" y1="62.5" x2="62.5" y2="69"/>
</g>
</svg>
