<?xml version="1.0" encoding="utf-8"?>
<!-- Generator: Adobe Illustrator 25.3.1, SVG Export Plug-In . SVG Version: 6.00 Build 0)  -->
<svg version="1.1" id="Layer_1" xmlns="http://www.w3.org/2000/svg" xmlns:xlink="http://www.w3.org/1999/xlink" x="0px" y="0px"
	 viewBox="0 0 100 100" style="enable-background:new 0 0 100 100;" xml:space="preserve">
<style type="text/css">
	.st0{fill:none;stroke:#FFFFFF;stroke-width:3;stroke-miterlimit:10;}
	.st1{fill:none;stroke:#FFFFFF;stroke-width:3;stroke-linecap:round;stroke-miterlimit:10;}
	.st2{fill:#FFFFFF;stroke:#FFFFFF;stroke-width:3;stroke-miterlimit:10;}
	.st3{fill:none;stroke:#FFFFFF;stroke-width:3;stroke-linecap:round;stroke-linejoin:round;stroke-miterlimit:10;}
</style>
<g>
	<polygon class="st3" points="73.3,51.2 60.1,57 61.6,71.4 50,62.9 38.4,71.4 39.9,57 26.7,51.2 39.9,45.4 38.4,31.1 50,39.6 
		61.6,31.1 60.1,45.4 	"/>
	<line class="st3" x1="50" y1="11.5" x2="50" y2="50.6"/>
	<g>
		<line class="st3" x1="50" y1="26.2" x2="60.8" y2="15.4"/>
		<line class="st3" x1="38.9" y1="15.4" x2="49.7" y2="26.2"/>
	</g>
	<line class="st3" x1="84.9" y1="31.5" x2="50.2" y2="49.4"/>
	<g>
		<line class="st3" x1="71.9" y1="38.2" x2="86.4" y2="42.9"/>
		<line class="st3" x1="76.4" y1="23.4" x2="71.7" y2="38"/>
	</g>
	<line class="st3" x1="81.3" y1="72.8" x2="50" y2="49.4"/>
	<g>
		<line class="st3" x1="69.5" y1="64" x2="71.7" y2="79.2"/>
		<line class="st3" x1="84.8" y1="61.6" x2="69.7" y2="63.8"/>
	</g>
	<line class="st3" x1="49.9" y1="88.5" x2="49.9" y2="49.4"/>
	<g>
		<line class="st3" x1="49.9" y1="73.8" x2="39" y2="84.6"/>
		<line class="st3" x1="61" y1="84.6" x2="50.2" y2="73.8"/>
	</g>
	<line class="st3" x1="15.1" y1="68.5" x2="49.8" y2="50.6"/>
	<g>
		<line class="st3" x1="28.1" y1="61.8" x2="13.6" y2="57.1"/>
		<line class="st3" x1="23.6" y1="76.6" x2="28.3" y2="62"/>
	</g>
	<line class="st3" x1="17.8" y1="30.1" x2="51.2" y2="50.4"/>
	<g>
		<line class="st3" x1="30.4" y1="37.8" x2="26.8" y2="22.9"/>
		<line class="st3" x1="15.4" y1="41.6" x2="30.3" y2="38"/>
	</g>
</g>
</svg>
