<?xml version="1.0" encoding="utf-8"?>
<!-- Generator: Adobe Illustrator 25.3.1, SVG Export Plug-In . SVG Version: 6.00 Build 0)  -->
<svg version="1.1" id="Layer_1" xmlns="http://www.w3.org/2000/svg" xmlns:xlink="http://www.w3.org/1999/xlink" x="0px" y="0px"
	 viewBox="0 0 100 100" style="enable-background:new 0 0 100 100;" xml:space="preserve">
<style type="text/css">
	.st0{fill:none;stroke:#FFFFFF;stroke-width:3;stroke-linecap:round;stroke-linejoin:round;stroke-miterlimit:10;}
	.st1{fill:none;stroke:#C63838;stroke-width:3;stroke-miterlimit:10;}
	.st2{fill:none;stroke:#C63838;stroke-width:3;stroke-linecap:round;stroke-miterlimit:10;}
	.st3{fill:none;stroke:#FFFFFF;stroke-width:3;stroke-miterlimit:10;}
	.st4{fill:none;stroke:#FFFFFF;stroke-width:3;stroke-linecap:round;stroke-miterlimit:10;}
	.st5{fill:#FFFFFF;stroke:#C63838;stroke-width:3;stroke-miterlimit:10;}
	.st6{fill:none;stroke:#C63838;stroke-width:3;stroke-linecap:round;stroke-linejoin:round;stroke-miterlimit:10;}
</style>
<g>
	<path class="st3" d="M43.8,42.8c1.8-6.9,8-12,15.5-12c8.8,0,16,7.2,16,16c0,6.9-4.3,12.7-10.4,15"/>
	<g>
		<line class="st4" x1="59.3" y1="18.3" x2="59.3" y2="24.5"/>
	</g>
	<g>
		<line class="st4" x1="79.5" y1="67.1" x2="75.1" y2="62.7"/>
		<line class="st4" x1="43.5" y1="31.1" x2="39.1" y2="26.7"/>
	</g>
	<g>
		<line class="st4" x1="75.1" y1="31.1" x2="79.5" y2="26.7"/>
	</g>
	<g>
		<line class="st4" x1="87.9" y1="46.9" x2="81.7" y2="46.9"/>
	</g>
</g>
<g>
	<path class="st3" d="M53.8,53.5c-1.4-6.8-7.4-12-14.7-12s-13.3,5.2-14.7,12l0,0c-6.8,0-12.3,5.5-12.3,12.3l0,0
		c0,5.4,4.3,9.7,9.7,9.7h34.6c5.4,0,9.7-4.3,9.7-9.7l0,0C66.1,59,60.6,53.5,53.8,53.5L53.8,53.5z"/>
</g>
</svg>
