<?xml version="1.0" encoding="utf-8"?>
<!-- Generator: Adobe Illustrator 25.3.1, SVG Export Plug-In . SVG Version: 6.00 Build 0)  -->
<svg version="1.1" id="Layer_1" xmlns="http://www.w3.org/2000/svg" xmlns:xlink="http://www.w3.org/1999/xlink" x="0px" y="0px"
	 viewBox="0 0 100 100" style="enable-background:new 0 0 100 100;" xml:space="preserve">
<style type="text/css">
	.st0{fill:#C2D42E;}
	.st1{fill:#5B5E5F;}
	.st2{fill:#55A37C;}
	.st3{fill:#DAE145;}
	.st4{fill:#90BC43;}
	.st5{fill:#56A67E;}
</style>
<g>
</g>
<g>
	<path class="st1" d="M55.4,81H55c-1.1,0-2-0.9-2-2V24c0-1.1,0.9-2,2-2h0.4c1.1,0,2,0.9,2,2v55C57.4,80.1,56.5,81,55.4,81z"/>
	<path class="st1" d="M39.1,20c-4.8-0.5-9.3,4-9.8,9.9c-0.3,3.3,0.6,6.4,2.3,8.5c3,3.7,4.4,8.5,4.4,13.2v28.3c0,1,0.7,1.9,1.7,2.1
		c1.3,0.2,2.3-0.8,2.3-2V51c0-4.8,1.8-9.4,4.6-13.3c1.2-1.7,2-3.8,2.3-6.1C47.4,25.6,44,20.4,39.1,20z"/>
	<path class="st1" d="M63,81h-0.4c-1.1,0-2-0.9-2-2V24c0-1.1,0.9-2,2-2H63c1.1,0,2,0.9,2,2v55C65,80.1,64.1,81,63,81z"/>
</g>
</svg>
