<?xml version="1.0" encoding="utf-8"?>
<!-- Generator: Adobe Illustrator 25.3.1, SVG Export Plug-In . SVG Version: 6.00 Build 0)  -->
<svg version="1.1" id="Layer_1" xmlns="http://www.w3.org/2000/svg" xmlns:xlink="http://www.w3.org/1999/xlink" x="0px" y="0px"
	 viewBox="0 0 100 100" style="enable-background:new 0 0 100 100;" xml:space="preserve">
<style type="text/css">
	.st0{fill:#C2D42E;}
	.st1{fill:#5B5E5F;}
	.st2{fill:#55A37C;}
	.st3{fill:#DAE145;}
	.st4{fill:#90BC43;}
	.st5{fill:#56A67E;}
</style>
<g>
	<path class="st0" d="M34,69.6c0.3,0.2,0.6,0.3,0.9,0.4c1,0.2,2,0.1,2.7-0.1c4-1.2,7.2-3.1,9.2-4.5c0.6-0.4,1.2-0.8,1.7-1.3
		c4.2-3.5,5.3-8.1,5.5-10.9c0-0.9,0-1.8,0-2.7v0c-0.1-1-0.2-2-0.3-3.1c-0.8-5.5-2.3-9.6-2.3-9.6c0-0.1-0.2-0.4-0.3-0.4
		c0,0-0.2,0.1-0.2,0.7h0C51.1,48.3,40.3,50.5,35,57c0,0,0,0,0,0c-0.1,0.1-0.2,0.2-0.3,0.3c0,0,0,0,0,0c-0.3,0.4-0.6,0.8-0.8,1.2
		c-2.6,4.1-2.2,7.2-1.6,8.8c0,0.1,0.1,0.3,0.1,0.4c0.3,0.7,0.6,1,0.6,1.1h0C33.3,69.2,33.6,69.4,34,69.6C34,69.6,34,69.6,34,69.6"/>
	<path class="st1" d="M52.1,32.2c2.2-0.6,3.5-2.8,2.9-5c-0.6-2.2-2.8-3.5-5-2.9c-2.2,0.6-3.5,2.8-2.9,5C47.7,31.5,50,32.8,52.1,32.2
		"/>
	<path class="st1" d="M62.3,44.4c-0.2-0.1-0.4-0.2-0.6-0.3c-0.2,0-0.3-0.1-0.5-0.1c-1,0-1.9,0.8-1.9,1.9c0,0.1,0,0.3,0,0.4
		c0.1,0.4,0.3,0.8,0.7,1.1c0.3,0.1,0.6,0.3,0.9,0.4c4.6,2.3,7.5,7.2,7,12.7c-0.6,7.1-6.9,12.3-14,11.7c-5.5-0.5-9.9-4.4-11.3-9.5
		c-0.1-0.2-0.1-0.4-0.2-0.6c-0.3-0.6-0.9-1.1-1.7-1.1c-1,0-1.8,0.8-1.9,1.8c0.1,0.3,0.1,0.6,0.2,0.9c1.8,6.5,7.4,11.5,14.5,12.1
		c9.1,0.8,17.2-5.9,18-15C72.2,53.7,68.3,47.3,62.3,44.4"/>
	<path class="st1" d="M57.5,48.4c-0.1-0.5-0.1-0.9-0.2-1.4c-0.8-5.8-2.4-10.1-2.5-10.3c-0.4-1-1-1.8-1.8-2.3c-1.4-0.9-3-0.4-3-0.4
		c-1.4,0.4-3,1.8-2.8,4.4c0.1,4.4-2.6,6.6-7.5,10c-2.6,1.8-5.3,3.7-7.4,6.3l0.1,0.1l-0.1-0.1c-0.1,0.1-0.3,0.4-0.3,0.4
		c-0.2,0.3-0.5,0.6-0.7,1c-0.3,0.5-0.5,0.9-0.7,1.3c-2.5,4.4-2.4,8-1.9,10.2c0,0.4,0.1,0.7,0.3,1.1c0.3,0.5,0.8,0.8,1.4,0.8
		c1,0.1,1.9-0.7,2-1.7c0-0.2,0-0.4-0.1-0.6c0-0.1,0-0.1-0.1-0.2c-0.5-1.7-0.6-4.6,1.7-8.3c0.3-0.4,0.5-0.8,0.8-1.2l0,0h0
		c0.1-0.1,0.2-0.2,0.3-0.3l0,0c5.2-6.5,16-8.6,15.7-18.7c0-0.7,0.2-0.7,0.2-0.7c0.2,0,0.3,0.3,0.3,0.4c0,0,1.5,4.1,2.3,9.6
		c0.1,0.5,0.1,0.9,0.2,1.4c0,0.2,0,0.4,0.1,0.6c0.2,0.7,0.8,1.3,1.6,1.4c1,0.1,1.9-0.6,2-1.6C57.5,49,57.5,48.7,57.5,48.4"/>
</g>
</svg>
