<?xml version="1.0" encoding="utf-8"?>
<!-- Generator: Adobe Illustrator 25.3.1, SVG Export Plug-In . SVG Version: 6.00 Build 0)  -->
<svg version="1.1" id="Layer_1" xmlns="http://www.w3.org/2000/svg" xmlns:xlink="http://www.w3.org/1999/xlink" x="0px" y="0px"
	 viewBox="0 0 100 100" style="enable-background:new 0 0 100 100;" xml:space="preserve">
<style type="text/css">
	.st0{fill:#C2D42E;}
	.st1{fill:#5B5E5F;}
	.st2{fill:#55A37C;}
	.st3{fill:#DAE145;}
	.st4{fill:#90BC43;}
	.st5{fill:#56A67E;}
</style>
<g>
	<path class="st1" d="M64.7,53.8c0.2,1,0.9,1.8,1.9,2c0.3,0.1,0.6,0.1,0.9,0c0,0,0.1,0,0.1,0c1.5,0,3.1,0,4.7-0.2h0
		c0,0,0.3,0,0.4,0.2c0.1,0.2-0.3,0.5-0.4,0.6c-1.5,1.4-3,2.6-4.5,3.8v0c-0.6,0.5-1,1.4-0.8,2.2c0,0.3,0.1,0.6,0.3,0.9l0.4,0.5
		c0.5,0.5,1.3,0.8,2.1,0.7c0.2,0,0.4-0.1,0.7-0.2c0.1-0.1,0.1-0.1,0.2-0.2c0.3-0.2,0.5-0.4,0.8-0.6c1.5-1.2,2.9-2.4,4.3-3.7l0.3-0.3
		c1.9-2,1.7-4.1,1.4-5.2c-0.7-2.2-2.7-3.6-5-3.6l-0.5,0c-0.5,0.1-1,0.1-1.6,0.1c-0.9,0.1-1.9,0.1-2.7,0c-0.2,0-0.3,0-0.5,0
		c-0.1,0-0.1,0-0.2,0C65.5,51.2,64.5,52.4,64.7,53.8"/>
	<path class="st1" d="M43.1,82.1c-11.7-0.6-20.7-10.7-20.7-22.4v-7.3c0-0.9,0.7-1.6,1.6-1.6H61c1.3,0,2.4,0.9,2.6,2.1
		c0.2,1.5-1,2.8-2.4,2.8H27.5c0,0-0.1,0-0.1,0.1l0,4c0,8.1,5.4,15.5,13.4,17.1c10.7,2.1,20.1-6,20.2-16.3c0-1.1,0.6-2.1,1.6-2.4
		c1.7-0.6,3.4,0.7,3.4,2.3C65.9,72.8,55.6,82.7,43.1,82.1"/>
	<path class="st2" d="M41.8,21.7c-0.1-0.3-0.3-0.5-0.4-0.7c-0.6-1-1.4-1.8-1.9-2.3c-1-0.8-1.9-0.9-2.2-0.9c-0.8,0.1-1.7,0.5-2.4,1.4
		c0,0-4,4.7-4.5,11.3c-0.1,1.1-0.1,2.2,0,3.3c0,0,0,0,0,0h0c0.6,4.8,3.5,9.1,9.1,13.7c0,0,0.2,0.2,0.3,0.1c0.1-0.1,0.1-0.4,0-0.5
		c-0.1-0.3-0.1-0.6-0.2-0.9c-0.3-1.4-0.3-2.6-0.3-3.6c0,0-0.2-3.4,1.9-8.9c1.2-3.5,2.4-6.7,1.5-10h0c0,0,0,0,0,0
		C42.4,23.1,42.2,22.4,41.8,21.7"/>
	<path class="st0" d="M48.1,49c0.3,0,0.5-0.1,0.7-0.1c0.7-0.2,1.3-0.7,1.7-1.1c2.1-2.4,3.4-4.8,4.2-6.4c0.2-0.5,0.4-1,0.6-1.5
		c1.3-3.9,0.3-7.2-0.7-9.2c-0.3-0.6-0.6-1.1-1-1.7l0,0c-0.4-0.6-0.9-1.2-1.4-1.9c-2.6-3.2-5.2-5.3-5.2-5.3c0,0-0.3-0.2-0.4-0.1
		c0,0-0.1,0.1,0.2,0.6c4.1,6.4-2,12-2.9,18.3l0,0c0,0.1,0,0.2,0,0.3v0c0,0.4-0.1,0.7-0.1,1.1c-0.1,3.6,1.4,5.5,2.4,6.3
		c0.1,0.1,0.2,0.1,0.2,0.2c0.5,0.3,0.8,0.4,0.8,0.4C47.5,49,47.8,49,48.1,49C48.1,49,48.1,49,48.1,49"/>
</g>
</svg>
